<svg width="370" height="346" viewBox="0 0 370 346" fill="none" xmlns="http://www.w3.org/2000/svg">
<circle cx="185.07" cy="173" r="173" fill="#F9FAFB"/>
<path d="M173.401 326.99C151.141 326.99 137.761 307.24 133.011 289.87L132.851 289.26C132.598 288.418 132.517 287.533 132.614 286.659C132.711 285.785 132.983 284.939 133.414 284.173C133.845 283.406 134.426 282.734 135.123 282.198C135.819 281.661 136.617 281.27 137.468 281.049C138.319 280.827 139.206 280.78 140.076 280.909C140.946 281.039 141.781 281.342 142.531 281.801C143.281 282.261 143.93 282.867 144.441 283.583C144.951 284.299 145.312 285.111 145.501 285.97L145.621 286.42C149.231 299.64 159.061 314.75 174.831 313.88C177.796 313.777 180.707 313.052 183.374 311.751C186.041 310.451 188.404 308.603 190.311 306.33C198.961 296.41 202.831 274.84 201.971 263.96C201.889 263.262 201.95 262.554 202.148 261.88C202.346 261.206 202.678 260.578 203.124 260.035C203.57 259.492 204.121 259.044 204.744 258.719C205.367 258.393 206.05 258.197 206.75 258.141C207.451 258.085 208.156 258.171 208.823 258.394C209.489 258.616 210.104 258.971 210.631 259.437C211.157 259.903 211.584 260.47 211.887 261.104C212.189 261.739 212.361 262.428 212.391 263.13C213.391 275.24 212.071 301.27 200.161 314.92C197.112 318.509 193.354 321.428 189.122 323.494C184.89 325.559 180.276 326.726 175.571 326.92C174.841 326.97 174.111 326.99 173.401 326.99Z" fill="white"/>
<mask id="mask0_712_5199" style="mask-type:luminance" maskUnits="userSpaceOnUse" x="132" y="258" width="81" height="69">
<path d="M173.401 326.99C151.141 326.99 137.761 307.24 133.011 289.87L132.851 289.26C132.598 288.418 132.517 287.533 132.614 286.659C132.711 285.785 132.983 284.939 133.414 284.173C133.845 283.406 134.426 282.734 135.123 282.198C135.819 281.661 136.617 281.27 137.468 281.049C138.319 280.827 139.206 280.78 140.076 280.909C140.946 281.039 141.781 281.342 142.531 281.801C143.281 282.261 143.93 282.867 144.441 283.583C144.951 284.299 145.312 285.111 145.501 285.97L145.621 286.42C149.231 299.64 159.061 314.75 174.831 313.88C177.796 313.777 180.707 313.052 183.374 311.751C186.041 310.451 188.404 308.603 190.311 306.33C198.961 296.41 202.831 274.84 201.971 263.96C201.889 263.262 201.95 262.554 202.148 261.88C202.346 261.206 202.678 260.578 203.124 260.035C203.57 259.492 204.121 259.044 204.744 258.719C205.367 258.393 206.05 258.197 206.75 258.141C207.451 258.085 208.156 258.171 208.823 258.394C209.489 258.616 210.104 258.971 210.631 259.437C211.157 259.903 211.584 260.47 211.887 261.104C212.189 261.739 212.361 262.428 212.391 263.13C213.391 275.24 212.071 301.27 200.161 314.92C197.112 318.509 193.354 321.428 189.122 323.494C184.89 325.559 180.276 326.726 175.571 326.92C174.841 326.97 174.111 326.99 173.401 326.99Z" fill="white"/>
</mask>
<g mask="url(#mask0_712_5199)">
<path d="M206.761 258.33C205.379 258.442 204.099 259.098 203.201 260.154C202.302 261.209 201.86 262.578 201.971 263.96C202.391 269.27 201.681 277.12 199.841 284.96C202.469 284.849 205.096 285.187 207.611 285.96C207.016 293.483 204.374 300.701 199.971 306.83C190.261 320.32 175.701 324.63 164.371 323.01C159.301 322.29 153.491 319.63 148.601 316.9C155.236 323.371 164.133 326.998 173.401 327.01C174.111 327.01 174.841 327.01 175.571 326.95C180.276 326.756 184.889 325.589 189.122 323.524C193.354 321.459 197.112 318.539 200.161 314.95C212.071 301.3 213.351 275.27 212.391 263.16C212.341 262.472 212.156 261.801 211.846 261.185C211.536 260.569 211.106 260.02 210.583 259.571C210.059 259.122 209.452 258.781 208.796 258.568C208.14 258.355 207.448 258.274 206.761 258.33Z" fill="#15171A"/>
<path opacity="0.5" d="M206.761 258.33C205.379 258.442 204.099 259.098 203.201 260.154C202.302 261.209 201.86 262.578 201.971 263.96C202.391 269.27 201.681 277.12 199.841 284.96C202.469 284.849 205.096 285.187 207.611 285.96C207.016 293.483 204.374 300.701 199.971 306.83C190.261 320.32 175.701 324.63 164.371 323.01C159.301 322.29 153.491 319.63 148.601 316.9C155.236 323.371 164.133 326.998 173.401 327.01C174.111 327.01 174.841 327.01 175.571 326.95C180.276 326.756 184.889 325.589 189.122 323.524C193.354 321.459 197.112 318.539 200.161 314.95C212.071 301.3 213.351 275.27 212.391 263.16C212.341 262.472 212.156 261.801 211.846 261.185C211.536 260.569 211.106 260.02 210.583 259.571C210.059 259.122 209.452 258.781 208.796 258.568C208.14 258.355 207.448 258.274 206.761 258.33Z" fill="white"/>
</g>
<path d="M173.401 326.99C151.141 326.99 137.761 307.24 133.011 289.87L132.851 289.26C132.598 288.418 132.517 287.533 132.614 286.659C132.711 285.785 132.983 284.939 133.414 284.173C133.845 283.406 134.426 282.734 135.123 282.198C135.819 281.661 136.617 281.27 137.468 281.049C138.319 280.827 139.206 280.78 140.076 280.909C140.946 281.039 141.781 281.342 142.531 281.801C143.281 282.261 143.93 282.867 144.441 283.583C144.951 284.299 145.312 285.111 145.501 285.97L145.621 286.42C149.231 299.64 159.061 314.75 174.831 313.88C177.796 313.777 180.707 313.052 183.374 311.751C186.041 310.451 188.404 308.603 190.311 306.33C198.961 296.41 202.831 274.84 201.971 263.96C201.889 263.262 201.95 262.554 202.148 261.88C202.346 261.206 202.678 260.578 203.124 260.035C203.57 259.492 204.121 259.044 204.744 258.719C205.367 258.393 206.05 258.197 206.75 258.141C207.451 258.085 208.156 258.171 208.823 258.394C209.489 258.616 210.104 258.971 210.631 259.437C211.157 259.903 211.584 260.47 211.887 261.104C212.189 261.739 212.361 262.428 212.391 263.13C213.391 275.24 212.071 301.27 200.161 314.92C197.112 318.509 193.354 321.428 189.122 323.494C184.89 325.559 180.276 326.726 175.571 326.92C174.841 326.97 174.111 326.99 173.401 326.99Z" stroke="#374151" stroke-width="1.1133" stroke-linecap="round" stroke-linejoin="round"/>
<path d="M160.561 313.46C161.091 311.01 155.231 314.84 150.321 318.41C152.138 319.945 154.093 321.307 156.161 322.48C157.911 319.63 160.051 315.82 160.561 313.46Z" fill="#15171A" stroke="#374151" stroke-width="1.1133" stroke-linecap="round" stroke-linejoin="round"/>
<path d="M173.401 326.99C174.111 326.99 174.841 326.99 175.571 326.93C177.696 326.811 179.807 326.513 181.881 326.04C179.121 322.44 175.321 317.68 174.231 317.32C172.981 316.9 170.571 323.03 169.231 326.75C170.616 326.911 172.008 326.991 173.401 326.99Z" fill="#15171A" stroke="#374151" stroke-width="1.1133" stroke-linecap="round" stroke-linejoin="round"/>
<path d="M145.621 286.42L145.501 285.97C145.312 285.111 144.951 284.299 144.441 283.583C143.93 282.867 143.281 282.261 142.531 281.801C141.781 281.342 140.946 281.038 140.076 280.909C139.206 280.78 138.319 280.827 137.468 281.049C136.617 281.27 135.819 281.661 135.123 282.197C134.426 282.734 133.845 283.406 133.414 284.173C132.983 284.939 132.711 285.785 132.614 286.659C132.517 287.533 132.598 288.418 132.851 289.26L133.011 289.87C134.678 295.97 137.239 301.79 140.611 307.14L152.521 301.47C149.398 296.873 147.066 291.786 145.621 286.42Z" fill="#15171A" stroke="#374151" stroke-width="1.1133" stroke-linecap="round" stroke-linejoin="round"/>
<path d="M200.162 314.92C201.077 313.86 201.925 312.745 202.702 311.58C198.922 310.29 193.262 308.51 191.162 308.7C188.672 308.93 192.052 316.93 193.792 320.7C196.134 319.029 198.272 317.089 200.162 314.92Z" fill="#15171A" stroke="#374151" stroke-width="1.1133" stroke-linecap="round" stroke-linejoin="round"/>
<path d="M200.372 293.55C199.972 294.35 204.862 297.91 208.162 300.2C209.208 297.085 210.05 293.905 210.682 290.68C206.682 291.48 200.762 292.77 200.372 293.55Z" fill="#15171A" stroke="#374151" stroke-width="1.1133" stroke-linecap="round" stroke-linejoin="round"/>
<path d="M212.301 278.76C212.521 275.91 212.631 273.19 212.641 270.69C209.201 272.58 205.121 275.2 205.121 276.92C205.121 278.64 208.941 278.85 212.301 278.76Z" fill="#15171A" stroke="#374151" stroke-width="1.1133" stroke-linecap="round" stroke-linejoin="round"/>
<path d="M158.461 201.39C158.461 201.39 148.751 229.51 153.981 251.39C155.53 257.793 158.538 263.751 162.768 268.801C166.999 273.85 172.339 277.854 178.371 280.5C178.371 280.5 164.181 285.5 167.371 293.19C170.561 300.88 182.791 295.93 186.781 293.44C190.771 290.95 195.781 283.49 196.481 278.51C196.926 275.966 197.094 273.381 196.981 270.8C196.981 270.8 213.151 269.06 224.101 260.1C224.101 260.1 233.811 267.81 240.781 266.32C247.751 264.83 257.701 252.38 256.701 241.19C255.701 230 249.251 230.01 245.311 231.71C243.266 232.483 241.401 233.668 239.831 235.19C239.831 235.19 245.551 228.19 239.831 218.52C238.143 215.684 235.831 213.269 233.071 211.458C230.311 209.647 227.175 208.489 223.901 208.07C223.901 208.07 220.901 192.14 211.961 186.17C203.021 180.2 171.151 174.02 158.461 201.39Z" fill="white"/>
<mask id="mask1_712_5199" style="mask-type:luminance" maskUnits="userSpaceOnUse" x="152" y="181" width="105" height="117">
<path d="M158.461 201.39C158.461 201.39 148.751 229.51 153.981 251.39C155.53 257.793 158.538 263.751 162.768 268.801C166.999 273.85 172.339 277.854 178.371 280.5C178.371 280.5 164.181 285.5 167.371 293.19C170.561 300.88 182.791 295.93 186.781 293.44C190.771 290.95 195.781 283.49 196.481 278.51C196.926 275.966 197.094 273.381 196.981 270.8C196.981 270.8 213.151 269.06 224.101 260.1C224.101 260.1 233.811 267.81 240.781 266.32C247.751 264.83 257.701 252.38 256.701 241.19C255.701 230 249.251 230.01 245.311 231.71C243.266 232.483 241.401 233.668 239.831 235.19C239.831 235.19 245.551 228.19 239.831 218.52C238.143 215.684 235.831 213.269 233.071 211.458C230.311 209.647 227.175 208.489 223.901 208.07C223.901 208.07 220.901 192.14 211.961 186.17C203.021 180.2 171.151 174.02 158.461 201.39Z" fill="white"/>
</mask>
<g mask="url(#mask1_712_5199)">
<path d="M232.391 211.06C227.775 218.761 221.387 225.248 213.758 229.982C206.129 234.717 197.481 237.562 188.531 238.28C168.731 240.02 157.631 236.12 152.531 233.41C153.15 222.53 155.167 211.775 158.531 201.41C171.221 174.04 203.071 180.26 212.031 186.23C220.991 192.2 223.971 208.13 223.971 208.13C226.953 208.504 229.822 209.503 232.391 211.06ZM245.311 231.71C243.266 232.483 241.401 233.668 239.831 235.19C241.042 233.52 241.841 231.588 242.161 229.55C228.711 236.25 229.761 250.55 228.091 250.55C226.031 250.55 225.011 243.36 225.011 243.36C225.011 243.36 222.441 253.63 207.011 260.83C191.581 268.03 174.131 262.37 174.131 262.37C174.131 262.37 177.731 270.59 168.481 269.56C165.885 269.312 163.396 268.403 161.251 266.92C165.687 272.834 171.578 277.498 178.351 280.46C178.351 280.46 164.161 285.46 167.351 293.15C170.541 300.84 182.781 295.89 186.761 293.4C190.741 290.91 195.761 283.45 196.461 278.47C196.906 275.926 197.074 273.341 196.961 270.76C196.961 270.76 213.131 269.02 224.081 260.06C224.081 260.06 233.791 267.77 240.761 266.28C247.731 264.79 257.681 252.34 256.681 241.15C255.681 229.96 249.251 230.01 245.311 231.71Z" fill="#15171A"/>
<path opacity="0.5" d="M232.391 211.06C227.775 218.761 221.387 225.248 213.758 229.982C206.129 234.717 197.481 237.562 188.531 238.28C168.731 240.02 157.631 236.12 152.531 233.41C153.15 222.53 155.167 211.775 158.531 201.41C171.221 174.04 203.071 180.26 212.031 186.23C220.991 192.2 223.971 208.13 223.971 208.13C226.953 208.504 229.822 209.503 232.391 211.06ZM245.311 231.71C243.266 232.483 241.401 233.668 239.831 235.19C241.042 233.52 241.841 231.588 242.161 229.55C228.711 236.25 229.761 250.55 228.091 250.55C226.031 250.55 225.011 243.36 225.011 243.36C225.011 243.36 222.441 253.63 207.011 260.83C191.581 268.03 174.131 262.37 174.131 262.37C174.131 262.37 177.731 270.59 168.481 269.56C165.885 269.312 163.396 268.403 161.251 266.92C165.687 272.834 171.578 277.498 178.351 280.46C178.351 280.46 164.161 285.46 167.351 293.15C170.541 300.84 182.781 295.89 186.761 293.4C190.741 290.91 195.761 283.45 196.461 278.47C196.906 275.926 197.074 273.341 196.961 270.76C196.961 270.76 213.131 269.02 224.081 260.06C224.081 260.06 233.791 267.77 240.761 266.28C247.731 264.79 257.681 252.34 256.681 241.15C255.681 229.96 249.251 230.01 245.311 231.71Z" fill="white"/>
<path d="M197.031 270.82C191.664 270.963 186.336 269.873 181.456 267.635C176.576 265.397 172.274 262.07 168.881 257.91" stroke="#374151" stroke-width="1.1133" stroke-linecap="round" stroke-linejoin="round"/>
</g>
<path d="M158.461 201.39C158.461 201.39 148.751 229.51 153.981 251.39C155.53 257.793 158.538 263.751 162.768 268.801C166.999 273.85 172.339 277.854 178.371 280.5C178.371 280.5 164.181 285.5 167.371 293.19C170.561 300.88 182.791 295.93 186.781 293.44C190.771 290.95 195.781 283.49 196.481 278.51C196.926 275.966 197.094 273.381 196.981 270.8C196.981 270.8 213.151 269.06 224.101 260.1C224.101 260.1 233.811 267.81 240.781 266.32C247.751 264.83 257.701 252.38 256.701 241.19C255.701 230 249.251 230.01 245.311 231.71C243.266 232.483 241.401 233.668 239.831 235.19C239.831 235.19 245.551 228.19 239.831 218.52C238.143 215.684 235.831 213.269 233.071 211.458C230.311 209.647 227.176 208.489 223.901 208.07C223.901 208.07 220.901 192.14 211.961 186.17C203.021 180.2 171.151 174.02 158.461 201.39Z" stroke="#374151" stroke-width="1.1133" stroke-linecap="round" stroke-linejoin="round"/>
<path d="M239.831 235.23C239.831 235.23 234.611 238.72 232.121 249.42" stroke="#374151" stroke-width="1.1133" stroke-linecap="round" stroke-linejoin="round"/>
<path d="M249.421 239.81C248.811 241.63 247.141 242.72 245.701 242.23C244.261 241.74 243.601 239.87 244.211 238.05C244.821 236.23 246.491 235.14 247.931 235.63C249.371 236.12 250.041 237.99 249.421 239.81Z" fill="white" stroke="#374151" stroke-width="1.1133" stroke-linecap="round" stroke-linejoin="round"/>
<path d="M254.571 243.05C253.961 244.87 252.291 245.96 250.851 245.47C249.411 244.98 248.741 243.11 249.361 241.29C249.981 239.47 251.641 238.38 253.081 238.87C254.521 239.36 255.191 241.23 254.571 243.05Z" fill="white" stroke="#374151" stroke-width="1.1133" stroke-linecap="round" stroke-linejoin="round"/>
<path d="M255.671 247.9C255.471 248.235 255.181 248.506 254.833 248.682C254.486 248.858 254.095 248.932 253.707 248.896C253.319 248.859 252.95 248.713 252.641 248.474C252.333 248.236 252.099 247.915 251.966 247.548C251.833 247.182 251.806 246.785 251.889 246.405C251.973 246.024 252.162 245.675 252.436 245.397C252.71 245.12 253.057 244.926 253.437 244.838C253.816 244.75 254.213 244.771 254.581 244.9C255.112 245.166 255.521 245.625 255.724 246.183C255.927 246.741 255.908 247.355 255.671 247.9Z" fill="white" stroke="#374151" stroke-width="1.1133" stroke-linecap="round" stroke-linejoin="round"/>
<path d="M249.101 254.56C247.301 257.81 243.701 259.25 241.051 257.78C238.401 256.31 237.721 252.5 239.521 249.25C241.321 246 244.921 244.56 247.571 246.03C250.221 247.5 250.901 251.31 249.101 254.56Z" fill="white" stroke="#374151" stroke-width="1.1133" stroke-linecap="round" stroke-linejoin="round"/>
<path d="M178.371 280.52C181.723 282.08 185.534 282.347 189.071 281.27" stroke="#374151" stroke-width="1.1133" stroke-linecap="round" stroke-linejoin="round"/>
<path d="M167.421 293.21C167.421 293.21 168.421 288.98 174.631 286" stroke="#374151" stroke-width="1.1133" stroke-linecap="round" stroke-linejoin="round"/>
<path d="M173.642 296.95C173.642 296.95 176.132 290.95 180.362 288.24" stroke="#374151" stroke-width="1.1133" stroke-linecap="round" stroke-linejoin="round"/>
<path d="M75.5113 228.11C74.4534 227.266 73.6102 226.184 73.0506 224.951C72.491 223.719 72.2308 222.372 72.2913 221.02V197.31H11.1313C9.63729 197.366 8.14888 197.098 6.76804 196.525C5.38721 195.952 4.1466 195.087 3.13127 193.99C1.13085 191.874 0.0332776 189.062 0.0712668 186.15C0.0631661 183.784 0.759383 181.469 2.07127 179.5L60.6513 87.44C65.0513 80.6467 70.8979 77.25 78.1913 77.25C82.1124 77.1168 85.941 78.4584 88.9213 81.01C91.7813 83.51 93.2113 87.2267 93.2113 92.16V181.65H108.771C109.846 181.585 110.922 181.758 111.922 182.155C112.923 182.553 113.824 183.165 114.561 183.95C115.877 185.492 116.6 187.453 116.6 189.48C116.6 191.507 115.877 193.468 114.561 195.01C113.824 195.795 112.923 196.407 111.922 196.805C110.922 197.202 109.846 197.375 108.771 197.31H93.1013V221.02C93.1662 222.362 92.9191 223.7 92.3795 224.93C91.8398 226.161 91.0224 227.249 89.9913 228.11C87.9783 229.798 85.4279 230.709 82.8013 230.68C80.1457 230.701 77.5666 229.792 75.5113 228.11ZM72.2513 181.65V99.25L20.9613 181.65H72.2513Z" fill="#15171A"/>
<path d="M160.381 228.59C154.387 225.974 149.079 222.007 144.871 217C140.645 211.71 137.345 205.742 135.111 199.35C132.579 192.445 130.799 185.287 129.801 178C128.76 170.066 128.259 162.071 128.301 154.07C128.301 101.357 146.301 75 182.301 75C218.301 75 236.258 101.357 236.171 154.07C236.207 162.033 235.723 169.99 234.721 177.89C233.756 185.178 231.992 192.338 229.461 199.24C227.227 205.632 223.927 211.6 219.701 216.89C215.488 221.904 210.183 225.886 204.191 228.53C197.303 231.575 189.831 233.077 182.301 232.93C174.767 233.081 167.289 231.601 160.381 228.59ZM192.941 213.46C195.953 212.175 198.687 210.317 200.991 207.99C203.324 205.506 205.242 202.663 206.671 199.57C208.249 196.293 209.524 192.879 210.481 189.37C211.49 185.547 212.225 181.657 212.681 177.73C213.221 173.397 213.581 169.427 213.761 165.82C213.941 162.213 214.028 158.297 214.021 154.07C214.021 149.637 213.935 145.543 213.761 141.79C213.588 138.037 213.211 134.01 212.631 129.71C212.133 125.785 211.382 121.897 210.381 118.07C209.435 114.596 208.159 111.221 206.571 107.99C205.131 104.946 203.21 102.153 200.881 99.72C198.591 97.4395 195.872 95.6348 192.881 94.41C186.044 91.7702 178.469 91.7702 171.631 94.41C168.662 95.6201 165.963 97.408 163.691 99.67C161.38 102.093 159.463 104.863 158.011 107.88C156.409 111.082 155.149 114.444 154.251 117.91C153.275 121.76 152.54 125.668 152.051 129.61C151.471 133.97 151.095 138.03 150.921 141.79C150.748 145.55 150.658 149.643 150.651 154.07C150.651 158.29 150.741 162.223 150.921 165.87C151.101 169.517 151.458 173.517 151.991 177.87C152.453 181.797 153.188 185.686 154.191 189.51C155.135 193.018 156.397 196.432 157.961 199.71C159.376 202.784 161.277 205.611 163.591 208.08C165.878 210.392 168.596 212.234 171.591 213.5C178.435 216.286 186.097 216.286 192.941 213.5V213.46Z" fill="#15171A"/>
<path d="M328.832 228.11C327.774 227.266 326.931 226.184 326.371 224.951C325.811 223.719 325.551 222.372 325.612 221.02V197.31H264.452C262.958 197.366 261.469 197.098 260.088 196.525C258.707 195.952 257.467 195.087 256.452 193.99C254.451 191.874 253.354 189.062 253.392 186.15C253.383 183.784 254.08 181.469 255.392 179.5L313.972 87.44C318.332 80.6467 324.162 77.25 331.462 77.25C335.403 77.1016 339.256 78.4442 342.252 81.01C345.112 83.51 346.542 87.2267 346.542 92.16V181.65H362.102C363.176 181.585 364.252 181.758 365.253 182.155C366.253 182.553 367.154 183.165 367.892 183.95C369.207 185.492 369.93 187.453 369.93 189.48C369.93 191.507 369.207 193.468 367.892 195.01C367.154 195.795 366.253 196.407 365.253 196.805C364.252 197.202 363.176 197.375 362.102 197.31H346.422V221.02C346.486 222.362 346.239 223.7 345.7 224.93C345.16 226.161 344.343 227.249 343.312 228.11C341.299 229.798 338.748 230.709 336.122 230.68C333.466 230.701 330.887 229.792 328.832 228.11ZM325.612 181.65V99.25L274.322 181.65H325.612Z" fill="#15171A"/>
<path d="M138.302 187.21C138.302 187.21 127.852 201.89 126.362 216.82C124.872 231.75 126.612 241.7 131.092 245.44C135.572 249.18 140.042 247.68 142.532 244.19C145.022 240.7 141.042 228.51 141.042 228.51C141.042 228.51 145.272 216.82 151.742 208.61C158.212 200.4 159.452 199.15 159.452 199.15C159.452 199.15 148.252 186.46 138.302 187.21Z" fill="white"/>
<mask id="mask2_712_5199" style="mask-type:luminance" maskUnits="userSpaceOnUse" x="125" y="187" width="35" height="61">
<path d="M138.302 187.21C138.302 187.21 127.852 201.89 126.362 216.82C124.872 231.75 126.612 241.7 131.092 245.44C135.572 249.18 140.042 247.68 142.532 244.19C145.022 240.7 141.042 228.51 141.042 228.51C141.042 228.51 145.272 216.82 151.742 208.61C158.212 200.4 159.452 199.15 159.452 199.15C159.452 199.15 148.252 186.46 138.302 187.21Z" fill="white"/>
</mask>
<g mask="url(#mask2_712_5199)">
<path d="M138.302 187.21C136.022 190.579 133.999 194.116 132.252 197.79C137.252 199.79 145.002 203.89 149.922 211.15C150.522 210.28 151.142 209.42 151.782 208.61C158.252 200.4 159.492 199.15 159.492 199.15C159.492 199.15 148.252 186.46 138.302 187.21Z" fill="#15171A"/>
<path opacity="0.5" d="M138.302 187.21C136.022 190.579 133.999 194.116 132.252 197.79C137.252 199.79 145.002 203.89 149.922 211.15C150.522 210.28 151.142 209.42 151.782 208.61C158.252 200.4 159.492 199.15 159.492 199.15C159.492 199.15 148.252 186.46 138.302 187.21Z" fill="white"/>
</g>
<path d="M138.302 187.21C138.302 187.21 127.852 201.89 126.362 216.82C124.872 231.75 126.612 241.7 131.092 245.44C135.572 249.18 140.042 247.68 142.532 244.19C145.022 240.7 141.042 228.51 141.042 228.51C141.042 228.51 145.272 216.82 151.742 208.61C158.212 200.4 159.452 199.15 159.452 199.15C159.452 199.15 148.252 186.46 138.302 187.21Z" stroke="#374151" stroke-width="1.1133" stroke-linecap="round" stroke-linejoin="round"/>
<path d="M131.091 245.44C129.869 242.177 129.275 238.713 129.341 235.23" stroke="#374151" stroke-width="1.1133" stroke-linecap="round" stroke-linejoin="round"/>
<path d="M137.801 246.93C137.801 246.93 135.321 242.7 135.071 235.48" stroke="#374151" stroke-width="1.1133" stroke-linecap="round" stroke-linejoin="round"/>
<path d="M141.541 213.83C141.541 211.21 136.541 206.09 129.591 203.83C128.657 206.266 127.885 208.762 127.281 211.3C129.981 211.762 132.604 212.6 135.071 213.79C138.801 215.82 141.541 216.82 141.541 213.83Z" fill="#15171A" stroke="#374151" stroke-width="1.1133" stroke-linecap="round" stroke-linejoin="round"/>
<path d="M137.691 188.1C136.079 190.557 134.597 193.097 133.251 195.71C135.355 196.266 137.374 197.108 139.251 198.21C146.961 202.68 148.451 203.21 145.971 196.71C144.471 192.63 140.891 189.86 137.691 188.1Z" fill="#15171A" stroke="#374151" stroke-width="1.1133" stroke-linecap="round" stroke-linejoin="round"/>
<path d="M220.151 179.96C220.151 179.96 231.991 193.54 234.941 208.26C237.891 222.98 237.141 233.05 233.041 237.2C228.941 241.35 224.351 240.31 221.531 237.08C218.711 233.85 221.531 221.34 221.531 221.34C221.531 221.34 216.171 210.11 208.931 202.57C201.691 195.03 200.321 193.92 200.321 193.92C200.321 193.92 210.171 180.19 220.151 179.96Z" fill="white"/>
<mask id="mask3_712_5199" style="mask-type:luminance" maskUnits="userSpaceOnUse" x="200" y="179" width="37" height="61">
<path d="M220.151 179.96C220.151 179.96 231.991 193.54 234.941 208.26C237.891 222.98 237.141 233.05 233.041 237.2C228.941 241.35 224.351 240.31 221.531 237.08C218.711 233.85 221.531 221.34 221.531 221.34C221.531 221.34 216.171 210.11 208.931 202.57C201.691 195.03 200.321 193.92 200.321 193.92C200.321 193.92 210.171 180.19 220.151 179.96Z" fill="white"/>
</mask>
<g mask="url(#mask3_712_5199)">
<path d="M220.151 179.96C210.151 180.19 200.271 193.96 200.271 193.96C200.271 193.96 201.632 195.08 208.882 202.61C210.237 204.038 211.513 205.54 212.702 207.11C216.486 200.718 221.891 195.44 228.371 191.81C225.987 187.625 223.236 183.659 220.151 179.96Z" fill="#15171A"/>
<path opacity="0.5" d="M220.151 179.96C210.151 180.19 200.271 193.96 200.271 193.96C200.271 193.96 201.632 195.08 208.882 202.61C210.237 204.038 211.513 205.54 212.702 207.11C216.486 200.718 221.891 195.44 228.371 191.81C225.987 187.625 223.236 183.659 220.151 179.96Z" fill="white"/>
</g>
<path d="M220.151 179.96C220.151 179.96 231.991 193.54 234.941 208.26C237.891 222.98 237.141 233.05 233.041 237.2C228.941 241.35 224.351 240.31 221.531 237.08C218.711 233.85 221.531 221.34 221.531 221.34C221.531 221.34 216.171 210.11 208.931 202.57C201.691 195.03 200.321 193.92 200.321 193.92C200.321 193.92 210.171 180.19 220.151 179.96Z" stroke="#374151" stroke-width="1.1133" stroke-linecap="round" stroke-linejoin="round"/>
<path d="M233.041 237.2C233.937 233.838 234.189 230.336 233.781 226.88" stroke="#374151" stroke-width="1.1133" stroke-linecap="round" stroke-linejoin="round"/>
<path d="M226.501 239.34C226.501 239.34 228.571 234.89 228.111 227.68" stroke="#374151" stroke-width="1.1133" stroke-linecap="round" stroke-linejoin="round"/>
<path d="M219.541 206.77C219.291 204.16 223.761 198.58 230.461 195.69C231.62 198.021 232.622 200.426 233.461 202.89C230.824 203.625 228.301 204.719 225.961 206.14C222.461 208.49 219.841 209.71 219.541 206.77Z" fill="#15171A" stroke="#374151" stroke-width="1.1133" stroke-linecap="round" stroke-linejoin="round"/>
<path d="M220.841 180.79C222.68 183.059 224.396 185.426 225.981 187.88C223.934 188.638 222 189.671 220.231 190.95C213.001 196.17 211.561 196.81 213.401 190.13C214.551 185.96 217.831 182.85 220.841 180.79Z" fill="#15171A" stroke="#374151" stroke-width="1.1133" stroke-linecap="round" stroke-linejoin="round"/>
<path d="M137.321 174.51C137.321 174.51 134.241 184.9 135.401 189.13C136.561 193.36 141.941 189.52 147.331 194.13C152.721 198.74 157.711 207.06 178.121 208.6C198.531 210.14 210.851 199.13 215.121 192.97C219.391 186.81 218.971 179.5 226.281 179.12C233.591 178.74 227.441 164.49 225.131 162.18C225.131 162.18 239.371 141.01 239.371 135.62C239.371 130.23 225.901 131.38 209.371 136.39C209.371 136.39 197.051 129.84 174.721 133.69C152.391 137.54 145.851 144.09 145.851 144.09C145.851 144.09 118.131 147.55 116.211 151.01C114.291 154.47 120.001 169.12 137.321 174.51Z" fill="white"/>
<mask id="mask4_712_5199" style="mask-type:luminance" maskUnits="userSpaceOnUse" x="115" y="132" width="125" height="77">
<path d="M137.321 174.51C137.321 174.51 134.241 184.9 135.401 189.13C136.561 193.36 141.941 189.52 147.331 194.13C152.721 198.74 157.711 207.06 178.121 208.6C198.531 210.14 210.851 199.13 215.121 192.97C219.391 186.81 218.971 179.5 226.281 179.12C233.591 178.74 227.441 164.49 225.131 162.18C225.131 162.18 239.371 141.01 239.371 135.62C239.371 130.23 225.901 131.38 209.371 136.39C209.371 136.39 197.051 129.84 174.721 133.69C152.391 137.54 145.851 144.09 145.851 144.09C145.851 144.09 118.131 147.55 116.211 151.01C114.291 154.47 120.001 169.12 137.321 174.51Z" fill="white"/>
</mask>
<g mask="url(#mask4_712_5199)">
<path d="M226.251 179.13C233.571 178.74 227.411 164.5 225.101 162.19C225.101 162.19 227.811 158.19 230.861 153.19C222.591 148.87 214.471 146.47 212.311 148.9C207.661 154.12 210.191 164.12 212.311 173.9C214.431 183.68 205.961 187.85 200.041 196.31C194.121 204.77 185.671 195.46 185.671 195.46C182.671 207.73 170.021 199.69 170.021 199.69C160.301 196.69 143.811 187.01 147.191 180.24C150.571 173.47 151.421 167.13 145.501 161.64C139.581 156.15 115.971 151.58 115.971 151.58C114.731 155.75 120.721 169.41 137.331 174.58C137.331 174.58 134.251 184.97 135.411 189.2C136.571 193.43 141.951 189.59 147.341 194.2C152.731 198.81 157.721 207.13 178.131 208.67C198.541 210.21 210.861 199.2 215.131 193.04C219.401 186.88 218.931 179.51 226.251 179.13Z" fill="#15171A"/>
<path opacity="0.5" d="M226.251 179.13C233.571 178.74 227.411 164.5 225.101 162.19C225.101 162.19 227.811 158.19 230.861 153.19C222.591 148.87 214.471 146.47 212.311 148.9C207.661 154.12 210.191 164.12 212.311 173.9C214.431 183.68 205.961 187.85 200.041 196.31C194.121 204.77 185.671 195.46 185.671 195.46C182.671 207.73 170.021 199.69 170.021 199.69C160.301 196.69 143.811 187.01 147.191 180.24C150.571 173.47 151.421 167.13 145.501 161.64C139.581 156.15 115.971 151.58 115.971 151.58C114.731 155.75 120.721 169.41 137.331 174.58C137.331 174.58 134.251 184.97 135.411 189.2C136.571 193.43 141.951 189.59 147.341 194.2C152.731 198.81 157.721 207.13 178.131 208.67C198.541 210.21 210.861 199.2 215.131 193.04C219.401 186.88 218.931 179.51 226.251 179.13Z" fill="white"/>
<path d="M196.141 181.45C196.431 183.89 191.011 186.52 184.061 187.33C177.111 188.14 171.231 186.82 170.941 184.33C170.651 181.84 176.071 179.27 183.031 178.46C189.991 177.65 195.861 179.02 196.141 181.45Z" fill="#15171A"/>
<path opacity="0.5" d="M196.141 181.45C196.431 183.89 191.011 186.52 184.061 187.33C177.111 188.14 171.231 186.82 170.941 184.33C170.651 181.84 176.071 179.27 183.031 178.46C189.991 177.65 195.861 179.02 196.141 181.45Z" fill="white"/>
</g>
<path d="M137.321 174.51C137.321 174.51 134.241 184.9 135.401 189.13C136.561 193.36 141.941 189.52 147.331 194.13C152.721 198.74 157.711 207.06 178.121 208.6C198.531 210.14 210.851 199.13 215.121 192.97C219.391 186.81 218.971 179.5 226.281 179.12C233.591 178.74 227.441 164.49 225.131 162.18C225.131 162.18 239.371 141.01 239.371 135.62C239.371 130.23 225.901 131.38 209.371 136.39C209.371 136.39 197.051 129.84 174.721 133.69C152.391 137.54 145.851 144.09 145.851 144.09C145.851 144.09 118.131 147.55 116.211 151.01C114.291 154.47 120.001 169.12 137.321 174.51Z" stroke="#374151" stroke-width="1.1133" stroke-miterlimit="10"/>
<path d="M216.941 143.71C206.941 150.43 210.471 157.15 214.941 160.88C217.671 163.16 222.071 162.88 225.081 162.24C225.081 162.24 239.321 141.07 239.321 135.68C239.331 135.63 226.891 136.94 216.941 143.71Z" fill="#15171A" stroke="#374151" stroke-width="1.1133" stroke-miterlimit="10"/>
<path d="M115.961 151.51C114.721 155.68 120.711 169.34 137.321 174.51C137.321 174.51 150.001 173.27 145.771 163.07C141.821 153.55 121.851 151.18 115.961 151.51Z" fill="#15171A" stroke="#374151" stroke-width="1.1133" stroke-miterlimit="10"/>
<path d="M174.661 133.71C173.351 133.94 172.091 134.18 170.881 134.42C172.881 144.52 176.171 161.34 179.111 161.34C182.051 161.34 184.301 142.9 185.261 132.57C181.707 132.72 178.166 133.1 174.661 133.71Z" fill="#15171A" stroke="#374151" stroke-width="1.1133" stroke-miterlimit="10"/>
<path d="M163.191 158.34C166.251 156.54 165.791 143.01 165.301 135.67C162.143 136.455 159.034 137.426 155.991 138.58C157.101 145.45 159.921 160.26 163.191 158.34Z" fill="#15171A" stroke="#374151" stroke-width="1.1133" stroke-miterlimit="10"/>
<path d="M192.802 152.12C195.932 153.22 197.692 141.97 198.682 133.31C195.521 132.795 192.324 132.524 189.122 132.5C189.022 139.61 189.412 150.93 192.802 152.12Z" fill="#15171A" stroke="#374151" stroke-width="1.1133" stroke-miterlimit="10"/>
<path d="M188.611 191.06C185.691 190.292 182.587 190.675 179.941 192.13C179.825 192.197 179.727 192.29 179.653 192.402C179.579 192.514 179.533 192.642 179.518 192.775C179.502 192.908 179.518 193.043 179.564 193.169C179.609 193.295 179.684 193.408 179.781 193.5L185.091 198.5C185.191 198.593 185.311 198.662 185.442 198.699C185.574 198.737 185.712 198.742 185.846 198.716C185.979 198.69 186.105 198.632 186.212 198.547C186.319 198.463 186.405 198.354 186.461 198.23L189.181 192.23C189.23 192.117 189.254 191.994 189.251 191.87C189.248 191.747 189.218 191.626 189.164 191.515C189.11 191.404 189.033 191.306 188.937 191.227C188.842 191.149 188.731 191.092 188.611 191.06Z" fill="#15171A" stroke="#374151" stroke-width="1.1133" stroke-linecap="round" stroke-linejoin="round"/>
<path d="M175.991 182.71C176.721 184.64 176.431 186.54 175.341 186.95C174.251 187.36 172.771 186.14 172.031 184.22C171.291 182.3 171.591 180.39 172.681 179.98C173.771 179.57 175.251 180.79 175.991 182.71Z" fill="#374151"/>
<path d="M190.471 181.34C190.091 183.34 190.711 185.19 191.861 185.4C193.011 185.61 194.251 184.15 194.631 182.12C195.011 180.09 194.391 178.28 193.241 178.06C192.091 177.84 190.851 179.32 190.471 181.34Z" fill="#374151"/>
<path d="M186.462 198.22C186.462 198.22 179.362 207.86 172.892 198.16" stroke="#374151" stroke-width="1.1133" stroke-linecap="round" stroke-linejoin="round"/>
<path d="M185.091 198.49C185.091 198.49 189.811 203.38 194.791 200.64C199.771 197.9 196.791 193.64 196.791 193.64" stroke="#374151" stroke-width="1.1133" stroke-linecap="round" stroke-linejoin="round"/>
<path d="M163.441 175.01C163.441 175.01 165.181 168.79 173.391 170.28" stroke="#374151" stroke-width="3.33991" stroke-linecap="round" stroke-linejoin="round"/>
<path d="M188.321 169.29C188.321 169.29 194.541 165.56 200.261 171.53" stroke="#374151" stroke-width="3.33991" stroke-linecap="round" stroke-linejoin="round"/>
<path d="M158.711 191.69L164.681 193.18" stroke="#374151" stroke-width="1.1133" stroke-miterlimit="10" stroke-linecap="round"/>
<path d="M163.931 195.42L158.711 196.41" stroke="#374151" stroke-width="1.1133" stroke-miterlimit="10" stroke-linecap="round"/>
<path d="M164.931 198.16L161.201 200.15" stroke="#374151" stroke-width="1.1133" stroke-miterlimit="10" stroke-linecap="round"/>
<path d="M202.751 188.95L207.981 187.7" stroke="#374151" stroke-width="1.1133" stroke-miterlimit="10" stroke-linecap="round"/>
<path d="M203.751 191.44H207.231" stroke="#374151" stroke-width="1.1133" stroke-miterlimit="10" stroke-linecap="round"/>
<path d="M204.491 193.93L209.221 195.17" stroke="#374151" stroke-width="1.1133" stroke-miterlimit="10" stroke-linecap="round"/>
</svg>
